<svg viewBox="0 0 200 200" xmlns="http://www.w3.org/2000/svg">
  <!-- Background circle -->
  <circle cx="100" cy="100" r="95" fill="#0A4D68" opacity="0.1"/>
  
  <!-- DNA double helix structure -->
  <g transform="translate(100, 100)">
    <!-- Left strand -->
    <path d="M -20,-60 Q -25,-40 -20,-20 Q -15,0 -20,20 Q -25,40 -20,60" 
          stroke="#0A4D68" 
          stroke-width="3" 
          fill="none"
          stroke-linecap="round"/>
    
    <!-- Right strand -->
    <path d="M 20,-60 Q 25,-40 20,-20 Q 15,0 20,20 Q 25,40 20,60" 
          stroke="#0A4D68" 
          stroke-width="3" 
          fill="none"
          stroke-linecap="round"/>
    
    <!-- Base pairs (connecting lines) -->
    <line x1="-20" y1="-50" x2="20" y2="-50" stroke="#05C3DD" stroke-width="2.5"/>
    <line x1="-20" y1="-35" x2="20" y2="-35" stroke="#05C3DD" stroke-width="2.5"/>
    <line x1="-20" y1="-20" x2="20" y2="-20" stroke="#05C3DD" stroke-width="2.5"/>
    <line x1="-20" y1="-5" x2="20" y2="-5" stroke="#05C3DD" stroke-width="2.5"/>
    <line x1="-20" y1="10" x2="20" y2="10" stroke="#05C3DD" stroke-width="2.5"/>
    <line x1="-20" y1="25" x2="20" y2="25" stroke="#05C3DD" stroke-width="2.5"/>
    <line x1="-20" y1="40" x2="20" y2="40" stroke="#05C3DD" stroke-width="2.5"/>
    <line x1="-20" y1="55" x2="20" y2="55" stroke="#05C3DD" stroke-width="2.5"/>
    
    <!-- Dots on connection points for detail -->
    <circle cx="-20" cy="-50" r="3" fill="#0A4D68"/>
    <circle cx="20" cy="-50" r="3" fill="#0A4D68"/>
    <circle cx="-20" cy="-20" r="3" fill="#0A4D68"/>
    <circle cx="20" cy="-20" r="3" fill="#0A4D68"/>
    <circle cx="-20" cy="10" r="3" fill="#0A4D68"/>
    <circle cx="20" cy="10" r="3" fill="#0A4D68"/>
    <circle cx="-20" cy="40" r="3" fill="#0A4D68"/>
    <circle cx="20" cy="40" r="3" fill="#0A4D68"/>
    
    <!-- Medical cross accent -->
    <g transform="translate(50, -50)">
      <rect x="-2" y="-8" width="4" height="16" fill="#05C3DD" rx="1"/>
      <rect x="-8" y="-2" width="16" height="4" fill="#05C3DD" rx="1"/>
    </g>
  </g>
  
  <!-- Outer circular accent -->
  <circle cx="100" cy="100" r="90" 
          stroke="#05C3DD" 
          stroke-width="2" 
          fill="none"
          opacity="0.3"/>
</svg>